# xmcd
#
# Track frame offsets: 
#        188
#        12050
#        31105
#        56695
#        94545
#        129990
#        173020
#        199478
#        235940
#        259555
#
# Disc length: 3713 seconds
#
# Revision: 2
# Processed by: cddbd v1.5.2PL0 Copyright (c) Steve Scherf et al.
# Submitted via: ExactAudioCopy v0.90b4
#
DISCID=750e7f0a
DTITLE=Súld - Blindflug - Flying On Instrument
DYEAR=1990
DGENRE=Progressive Rock
TTITLE0=Betra Seint En Aldrei
TTITLE1=Fleiri Te
TTITLE2=Eldfluga
TTITLE3=Sól Yfir Eyðibæ
TTITLE4=Kjarnorkulaus Heimur
TTITLE5=Næturljóð
TTITLE6=Bleikt Og Blátt
TTITLE7=Það Var Einu Sinni Lykill
TTITLE8=Flótti Stigamannsins Yfir Spytnaakurinn
TTITLE9=Smásmuguleg Eftirgrennslan
EXTD=1990\n\n479\n
EXTT0=
EXTT1=
EXTT2=
EXTT3=
EXTT4=
EXTT5=
EXTT6=
EXTT7=
EXTT8=
EXTT9=
PLAYORDER=
